<svg width="304" height="304" viewBox="0 0 304 304" fill="none" xmlns="http://www.w3.org/2000/svg">
<path fill-rule="evenodd" clip-rule="evenodd" d="M152 302C234.843 302 302 234.843 302 152C302 69.1573 234.843 2 152 2C69.1573 2 2 69.1573 2 152C2 234.843 69.1573 302 152 302ZM210.549 51.6508C215.663 53.7352 218.22 59.6107 216.26 64.7741L151.382 235.704C150.212 238.787 147.695 240.92 144.769 241.693C141.304 242.84 137.36 241.94 134.682 239.036L66.8936 165.516C63.1498 161.456 63.2966 155.014 67.2213 151.129C71.146 147.243 77.3626 147.384 81.1064 151.445L138.395 213.577L197.74 57.2259C199.699 52.0625 205.434 49.5664 210.549 51.6508Z" fill="#D9D9D9" stroke="white" stroke-width="4" stroke-linecap="round"/>
</svg>
