<svg class="svg-icon" style="width: 1em; height: 1em;vertical-align: middle;fill: currentColor;overflow: hidden;" viewBox="0 0 1024 1024" version="1.1" xmlns="http://www.w3.org/2000/svg"><path d="M852.0704 365.6704C864.256 365.6704 870.4 371.8144 870.4 384l0 566.8864c0 21.2992-6.8608 38.912-20.5824 52.5312C836.096 1017.1392 818.5856 1024 797.2864 1024L175.5136 1024c-21.2992 0-38.8096-6.8608-52.5312-20.5824C109.2608 989.696 102.4 972.1856 102.4 950.8864L102.4 384c0-12.1856 6.144-18.3296 18.3296-18.3296l91.4432 0L212.1728 274.3296c0-76.1856 26.624-140.9024 79.9744-194.2528C345.4976 26.624 410.2144 0 486.4 0c76.1856 0 140.9024 26.624 194.2528 79.9744 53.3504 53.3504 79.9744 118.0672 79.9744 194.2528l0 91.4432L852.0704 365.6704zM833.8432 402.3296 138.9568 402.3296l0 548.5568c0 24.3712 12.1856 36.5568 36.5568 36.5568l621.6704 0c24.3712 0 36.5568-12.1856 36.5568-36.5568L833.7408 402.3296zM248.7296 365.6704l475.4432 0L724.1728 274.3296c0-65.536-23.2448-121.5488-69.7344-168.0384C607.9488 59.8016 551.936 36.5568 486.4 36.5568S364.8512 59.8016 318.3616 106.2912C271.9744 152.7808 248.7296 208.7936 248.7296 274.3296L248.7296 365.6704zM541.2864 640c0 24.3712-12.1856 41.8816-36.5568 52.5312l0 130.2528c0 12.1856-6.144 18.3296-18.3296 18.3296s-18.3296-6.144-18.3296-18.3296L468.0704 692.5312C443.6992 681.8816 431.5136 664.3712 431.5136 640c0-15.2576 5.3248-28.16 15.9744-38.8096C458.24 590.4384 471.1424 585.1136 486.4 585.1136c15.2576 0 28.16 5.3248 38.8096 15.9744C535.9616 611.84 541.2864 624.7424 541.2864 640zM504.7296 640c0-12.1856-6.144-18.3296-18.3296-18.3296S468.0704 627.8144 468.0704 640s6.144 18.3296 18.3296 18.3296S504.7296 652.1856 504.7296 640z"  /></svg>