<svg width="300" height="300" viewBox="0 0 300 300" fill="none" xmlns="http://www.w3.org/2000/svg">
<mask id="path-1-inside-1_1_30" fill="white">
<path fill-rule="evenodd" clip-rule="evenodd" d="M300 150C300 232.843 232.843 300 150 300C67.1573 300 0 232.843 0 150C0 67.1573 67.1573 0 150 0C232.843 0 300 67.1573 300 150ZM78.636 78.636C82.1508 75.1213 87.8492 75.1213 91.364 78.636L149.548 136.821L207.733 78.636C211.248 75.1213 216.946 75.1213 220.461 78.636C223.976 82.1508 223.976 87.8492 220.461 91.364L162.276 149.548L220.461 207.733C223.976 211.248 223.976 216.946 220.461 220.461C216.946 223.976 211.248 223.976 207.733 220.461L149.548 162.276L91.364 220.461C87.8492 223.976 82.1508 223.976 78.636 220.461C75.1213 216.946 75.1213 211.248 78.636 207.733L136.821 149.548L78.636 91.364C75.1213 87.8492 75.1213 82.1508 78.636 78.636Z"/>
</mask>
<path fill-rule="evenodd" clip-rule="evenodd" d="M300 150C300 232.843 232.843 300 150 300C67.1573 300 0 232.843 0 150C0 67.1573 67.1573 0 150 0C232.843 0 300 67.1573 300 150ZM78.636 78.636C82.1508 75.1213 87.8492 75.1213 91.364 78.636L149.548 136.821L207.733 78.636C211.248 75.1213 216.946 75.1213 220.461 78.636C223.976 82.1508 223.976 87.8492 220.461 91.364L162.276 149.548L220.461 207.733C223.976 211.248 223.976 216.946 220.461 220.461C216.946 223.976 211.248 223.976 207.733 220.461L149.548 162.276L91.364 220.461C87.8492 223.976 82.1508 223.976 78.636 220.461C75.1213 216.946 75.1213 211.248 78.636 207.733L136.821 149.548L78.636 91.364C75.1213 87.8492 75.1213 82.1508 78.636 78.636Z" fill="#D9D9D9"/>
<path d="M149.548 136.821L146.72 139.649L149.548 142.477L152.377 139.649L149.548 136.821ZM207.733 78.636L210.561 81.4645L210.561 81.4645L207.733 78.636ZM220.461 78.636L223.289 75.8076L223.289 75.8076L220.461 78.636ZM220.461 91.364L223.289 94.1924L223.289 94.1924L220.461 91.364ZM162.276 149.548L159.448 146.72L156.619 149.548L159.448 152.377L162.276 149.548ZM220.461 207.733L223.289 204.904L223.289 204.904L220.461 207.733ZM220.461 220.461L223.289 223.289L223.289 223.289L220.461 220.461ZM207.733 220.461L210.561 217.632L210.561 217.632L207.733 220.461ZM149.548 162.276L152.377 159.448L149.548 156.619L146.72 159.448L149.548 162.276ZM91.364 220.461L94.1924 223.289L94.1924 223.289L91.364 220.461ZM78.636 220.461L75.8076 223.289L75.8076 223.289L78.636 220.461ZM78.636 207.733L75.8076 204.904L75.8076 204.904L78.636 207.733ZM136.821 149.548L139.649 152.377L142.477 149.548L139.649 146.72L136.821 149.548ZM150 304C235.052 304 304 235.052 304 150H296C296 230.634 230.634 296 150 296V304ZM-4 150C-4 235.052 64.9481 304 150 304V296C69.3664 296 4 230.634 4 150H-4ZM150 -4C64.9481 -4 -4 64.9481 -4 150H4C4 69.3664 69.3664 4 150 4V-4ZM304 150C304 64.9481 235.052 -4 150 -4V4C230.634 4 296 69.3664 296 150H304ZM94.1924 75.8076C89.1156 70.7308 80.8844 70.7308 75.8076 75.8076L81.4645 81.4645C83.4171 79.5118 86.5829 79.5118 88.5355 81.4645L94.1924 75.8076ZM152.377 133.992L94.1924 75.8076L88.5355 81.4645L146.72 139.649L152.377 133.992ZM152.377 139.649L210.561 81.4645L204.904 75.8076L146.72 133.992L152.377 139.649ZM210.561 81.4645C212.514 79.5118 215.68 79.5118 217.632 81.4645L223.289 75.8076C218.212 70.7308 209.981 70.7308 204.904 75.8076L210.561 81.4645ZM217.632 81.4645C219.585 83.4171 219.585 86.5829 217.632 88.5355L223.289 94.1924C228.366 89.1156 228.366 80.8844 223.289 75.8076L217.632 81.4645ZM217.632 88.5355L159.448 146.72L165.105 152.377L223.289 94.1924L217.632 88.5355ZM223.289 204.904L165.105 146.72L159.448 152.377L217.632 210.561L223.289 204.904ZM223.289 223.289C228.366 218.212 228.366 209.981 223.289 204.904L217.632 210.561C219.585 212.514 219.585 215.68 217.632 217.632L223.289 223.289ZM204.904 223.289C209.981 228.366 218.212 228.366 223.289 223.289L217.632 217.632C215.68 219.585 212.514 219.585 210.561 217.632L204.904 223.289ZM146.72 165.105L204.904 223.289L210.561 217.632L152.377 159.448L146.72 165.105ZM146.72 159.448L88.5355 217.632L94.1924 223.289L152.377 165.105L146.72 159.448ZM88.5355 217.632C86.5829 219.585 83.4171 219.585 81.4645 217.632L75.8076 223.289C80.8844 228.366 89.1156 228.366 94.1924 223.289L88.5355 217.632ZM81.4645 217.632C79.5118 215.68 79.5118 212.514 81.4645 210.561L75.8076 204.904C70.7308 209.981 70.7308 218.212 75.8076 223.289L81.4645 217.632ZM81.4645 210.561L139.649 152.377L133.992 146.72L75.8076 204.904L81.4645 210.561ZM75.8076 94.1924L133.992 152.377L139.649 146.72L81.4645 88.5355L75.8076 94.1924ZM75.8076 75.8076C70.7308 80.8844 70.7308 89.1156 75.8076 94.1924L81.4645 88.5355C79.5118 86.5829 79.5118 83.4171 81.4645 81.4645L75.8076 75.8076Z" fill="white" mask="url(#path-1-inside-1_1_30)"/>
</svg>
