    <svg width="300" height="300" viewBox="0 0 300 300" fill="none" xmlns="http://www.w3.org/2000/svg">
        <mask id="path-1-inside-1_1_41" fill="white">
            <path fill-rule="evenodd" clip-rule="evenodd"
                d="M300 150C300 232.843 232.843 300 150 300C67.1573 300 0 232.843 0 150C0 67.1573 67.1573 0 150 0C232.843 0 300 67.1573 300 150ZM150 194C145.029 194 141 189.971 141 185V58C141 53.0294 145.029 49 150 49C154.971 49 159 53.0294 159 58V185C159 189.971 154.971 194 150 194ZM149.5 241C156.404 241 162 235.404 162 228.5C162 221.596 156.404 216 149.5 216C142.596 216 137 221.596 137 228.5C137 235.404 142.596 241 149.5 241Z" />
        </mask>
        <path fill-rule="evenodd" clip-rule="evenodd"
            d="M300 150C300 232.843 232.843 300 150 300C67.1573 300 0 232.843 0 150C0 67.1573 67.1573 0 150 0C232.843 0 300 67.1573 300 150ZM150 194C145.029 194 141 189.971 141 185V58C141 53.0294 145.029 49 150 49C154.971 49 159 53.0294 159 58V185C159 189.971 154.971 194 150 194ZM149.5 241C156.404 241 162 235.404 162 228.5C162 221.596 156.404 216 149.5 216C142.596 216 137 221.596 137 228.5C137 235.404 142.596 241 149.5 241Z"
            fill="#D9D9D9" />
        <path
            d="M150 304C235.052 304 304 235.052 304 150H296C296 230.634 230.634 296 150 296V304ZM-4 150C-4 235.052 64.9481 304 150 304V296C69.3664 296 4 230.634 4 150H-4ZM150 -4C64.9481 -4 -4 64.9481 -4 150H4C4 69.3664 69.3664 4 150 4V-4ZM304 150C304 64.9481 235.052 -4 150 -4V4C230.634 4 296 69.3664 296 150H304ZM137 185C137 192.18 142.82 198 150 198V190C147.239 190 145 187.761 145 185H137ZM137 58V185H145V58H137ZM150 45C142.82 45 137 50.8203 137 58H145C145 55.2386 147.239 53 150 53V45ZM163 58C163 50.8203 157.18 45 150 45V53C152.761 53 155 55.2386 155 58H163ZM163 185V58H155V185H163ZM150 198C157.18 198 163 192.18 163 185H155C155 187.761 152.761 190 150 190V198ZM158 228.5C158 233.194 154.194 237 149.5 237V245C158.613 245 166 237.613 166 228.5H158ZM149.5 220C154.194 220 158 223.806 158 228.5H166C166 219.387 158.613 212 149.5 212V220ZM141 228.5C141 223.806 144.806 220 149.5 220V212C140.387 212 133 219.387 133 228.5H141ZM149.5 237C144.806 237 141 233.194 141 228.5H133C133 237.613 140.387 245 149.5 245V237Z"
            fill="white" mask="url(#path-1-inside-1_1_41)" />
    </svg>